<svg width="129" height="94" viewBox="0 0 129 94" fill="none" xmlns="http://www.w3.org/2000/svg">
<g id="Group">
<path id="Vector" d="M28.7757 39.6463L48.7298 52.878C48.7298 52.878 58.4992 41.1165 66.7929 39.4331C75.0921 37.7553 67.9488 52.1429 67.9488 52.1429L49.1507 63.9044L24.6794 44.3711L28.7757 39.6463Z" fill="#3ABFB8"/>
<path id="Vector_2" d="M93.576 72.8882L72.7802 67.3722L56.7373 41.8348L49.0048 45.9872L69.9465 75.722L92.4594 77.6298L93.576 72.8882Z" fill="#E5B7AC"/>
<path id="Vector_3" d="M66.3776 55.1899L64.5932 67.7931C63.2296 66.957 61.6585 65.5429 59.9526 63.7809C57.1974 60.9135 54.1055 57.1427 51.0585 53.4784L51.3728 45.1455L56.5577 40.965C56.5577 40.965 57.6351 41.7113 58.8752 42.727C59.7225 43.4116 60.6484 44.214 61.3554 44.9884C66.9051 50.2238 66.3776 55.1899 66.3776 55.1899Z" fill="#F5F5F5"/>
<path id="Vector_4" opacity="0.2" d="M66.3777 55.1899L64.5932 67.7931C63.2297 66.957 61.6585 65.5429 59.9526 63.7809C59.947 62.7709 60.0705 61.7047 60.3622 60.5993C63.0501 50.3416 59.5037 43.7595 58.8808 42.727C59.7281 43.4116 60.654 44.214 61.3611 44.9884C66.9051 50.2238 66.3777 55.1899 66.3777 55.1899Z" fill="#3A65AF"/>
<path id="Vector_5" d="M61.26 55.4143V55.5939C61.26 55.8352 61.2488 56.0877 61.232 56.3458C61.1534 57.7543 60.8841 59.3703 60.5306 61.0033C60.452 61.3399 60.3791 61.6766 60.2893 62.0133V62.0189C60.1939 62.4622 60.0817 62.9055 59.9582 63.3376C59.9638 63.3432 59.9638 63.3432 59.9582 63.3488C59.9302 63.461 59.9021 63.5733 59.8684 63.6855V63.6911C59.0099 66.9457 58.0391 69.7177 57.8876 70.1442C57.8708 70.1891 57.8652 70.2115 57.8652 70.2115L59.6552 93.5661H21.5314C23.4842 85.4577 27.6085 79.4928 31.6656 72.1026L31.3401 67.5517L31.3345 67.4956C31.0315 66.6202 30.7565 65.7505 30.504 64.8863C30.3132 64.2354 30.1337 63.5845 29.9653 62.9392C29.7577 62.148 29.5669 61.3568 29.3986 60.5656C29.3986 60.5543 29.393 60.5431 29.393 60.5319C29.1629 59.4882 28.9665 58.4388 28.8094 57.3951C28.8038 57.3895 28.8094 57.3895 28.8094 57.3895C28.2595 53.961 28.0574 50.5661 28.209 47.188C28.2146 46.8513 28.2314 46.5203 28.2539 46.1892V46.1836C28.2987 45.4821 28.3492 44.7919 28.4222 44.0961V44.0905C28.439 44.0007 28.4446 43.911 28.4615 43.81V43.8043C28.4615 43.7594 28.4671 43.7146 28.4727 43.6753V43.6697C28.5681 42.8223 28.6803 41.9919 28.8262 41.167C28.8318 41.1109 28.843 41.0491 28.8599 41.0043V40.9986C28.9216 40.6058 28.9889 40.2299 29.0731 39.8427C29.0731 39.8371 29.0731 39.8371 29.0731 39.8315C29.1348 39.4611 29.219 39.0964 29.2976 38.7204V38.7148C29.2976 38.7092 29.2976 38.7092 29.2976 38.7036C29.3088 38.6924 29.3368 38.6868 29.3481 38.6811C29.3537 38.6755 29.3537 38.6755 29.3537 38.6755C29.3593 38.6699 29.3649 38.6699 29.3817 38.6643H29.3873C29.7745 38.4623 30.1954 38.2715 30.6443 38.0976C30.6499 38.0976 30.6499 38.0919 30.6555 38.0919C30.7509 38.0527 30.8463 38.0078 30.9361 37.9797C31.8676 37.615 32.9113 37.2839 34.0616 36.9641C34.0672 36.9641 34.0785 36.9584 34.0841 36.9584C34.129 36.9472 34.1963 36.9248 34.258 36.9079C34.937 36.7228 35.6384 36.5432 36.3623 36.3636C36.3679 36.3636 36.3791 36.3636 36.396 36.358C36.6597 36.2907 36.9347 36.229 37.2096 36.1672C37.3611 36.1336 37.5126 36.0943 37.6698 36.055C37.8044 36.027 37.9447 35.9933 38.085 35.9596C38.2365 35.9372 38.388 35.9035 38.5395 35.8642C39.0221 35.7576 39.5159 35.651 40.0153 35.5444L40.4081 35.5837L40.4642 35.5893L43.2868 35.8025H43.298L47.9947 36.1785L50.8958 37.8114L50.9968 37.8675L51.5411 38.1649L51.6982 38.2547L52.4838 38.6924L56.4006 40.9033H56.4062L56.5409 40.9762L56.5465 40.9818L56.6026 41.0155C56.6026 41.0155 57.0291 41.8852 57.6126 43.232C57.6182 43.2432 57.6239 43.2544 57.6295 43.2656C57.7473 43.5013 57.8539 43.7482 57.9662 44.012V44.0176C59.2287 46.9804 60.9626 51.5144 61.2264 54.6568C61.2488 54.8981 61.26 55.1506 61.26 55.4143Z" fill="#F5F5F5"/>
<path id="Vector_6" opacity="0.2" d="M32.67 63.3432C31.5926 64.2017 30.7397 64.7404 30.5096 64.8807C30.0832 63.433 29.7128 62.0021 29.4042 60.5656L27.732 63.433L29.3986 60.5319L34.836 51.043L35.3018 50.235C35.2962 50.2294 31.8003 59.9707 32.67 63.3432Z" fill="#3A65AF"/>
<path id="Vector_7" d="M101.067 93.5662H63.5944L65.2385 72.1026C65.2385 72.1026 64.4641 69.9646 63.6505 67.1477C63.6056 66.9513 63.5383 66.7549 63.4822 66.5473V66.5417C62.5675 63.2254 61.6528 59.1571 61.8717 56.5534C61.8941 56.3514 61.911 56.1382 61.9446 55.9025V55.8969C61.9671 55.7286 61.9951 55.5546 62.0232 55.375C62.1971 54.264 62.5002 52.9565 62.8593 51.5874V51.5817C63.1791 50.3865 63.5383 49.1464 63.9198 47.9287C65.2666 43.5238 66.7929 39.4387 66.7929 39.4387L67.2642 39.3601L67.2979 39.3545L71.6355 38.6419L71.8936 38.6026L71.9497 38.5858H71.9553L75.1033 38.0751L75.9394 38.0022L77.4096 37.8899H77.4321L79.57 37.716L83.0884 37.4354C83.4643 37.5364 83.8403 37.643 84.2162 37.744C84.3228 37.7777 84.4351 37.8058 84.5473 37.8394C84.6315 37.8619 84.7213 37.8899 84.8054 37.918C85.2095 38.0302 85.6191 38.1481 86.0175 38.2715C86.545 38.423 87.0668 38.5858 87.5831 38.7485C88.3406 38.9898 89.0982 39.2423 89.8389 39.506C91.1239 39.9549 92.3808 40.4431 93.6097 40.9818H93.6153C93.6153 40.9818 93.6153 40.9818 93.6209 40.9874C93.6265 40.9874 93.6265 40.9874 93.6321 40.993L93.4975 45.8245V45.8301L92.6614 57.2492V57.2549L92.4257 60.4533L92.4089 60.689L91.5896 71.8894V71.9006L91.5615 72.3495V72.3551L91.4381 73.988C91.8814 74.7848 92.3191 75.5648 92.7624 76.3392C93.4638 77.6018 94.1821 78.8194 94.8667 80.0315C97.3525 84.4028 99.6139 88.6057 101.067 93.5662Z" fill="#3ABFB8"/>
<path id="Vector_8" opacity="0.2" d="M101.067 93.5661H94.906C94.025 88.3532 92.667 84.3186 91.3596 81.3558C91.2529 81.1145 91.1463 80.8844 91.0397 80.6543C90.8994 80.3513 90.7591 80.0595 90.6189 79.779C90.3158 79.1729 90.024 78.6286 89.7435 78.1404C89.6649 77.9945 89.5807 77.8542 89.4966 77.7196C89.4292 77.5961 89.3563 77.4727 89.2833 77.3604C88.9523 76.8105 88.6437 76.356 88.3855 75.9913C88.2396 75.778 88.105 75.5985 87.9927 75.447C87.7065 75.0766 87.5438 74.897 87.5438 74.897C87.8412 74.4762 88.0937 73.9712 88.2957 73.3988C88.4978 72.8601 88.6549 72.2597 88.7839 71.6144C90.1026 64.9593 88.0601 53.4503 88.0601 53.4503L92.4257 60.4533L94.7713 64.213L95.1529 65.0322L95.0575 65.0996L92.4089 60.689L91.5896 71.8893V71.9006L91.5616 72.3495V72.3551L91.4381 73.988C91.8814 74.7848 92.3191 75.5648 92.7624 76.3392C93.4638 77.6017 94.1821 78.8194 94.8667 80.0315C97.3525 84.4027 99.6139 88.6057 101.067 93.5661Z" fill="#407C7C"/>
<path id="Vector_9" d="M72.0956 37.9741C72.0956 37.9741 65.39 47.4013 69.1609 49.7076C72.9317 52.0138 74.8957 47.8726 74.8957 47.8726C74.8957 47.8726 74.5029 52.9509 79.6373 51.593C84.7718 50.2294 88.8681 41.9582 84.3565 37.8731C79.845 33.7824 72.0956 37.9741 72.0956 37.9741Z" fill="#F5F5F5"/>
<path id="Vector_10" d="M48.2024 26.1509L50.9126 32.2674L51.3616 34.1865L51.7993 39.3882C51.7993 39.3882 52.1135 44.2589 48.1855 44.3375C45.9802 44.3823 42.1645 43.5182 38.1243 38.3333L39.8077 28.2664L40.2005 28.244L48.2024 26.1509Z" fill="#E5B7AC"/>
<path id="Vector_11" opacity="0.5" d="M51.1988 32.2393L51.5187 37.8114C44.4315 38.6755 40.6382 34.2706 39.4766 29.6917L51.1988 32.2393Z" fill="#CA7E86"/>
<path id="Vector_12" d="M54.2346 7.97003C54.2346 7.97003 60.9795 12.0551 59.0436 23.2947C57.5734 31.8241 62.3543 34.0798 62.3543 34.0798C62.3543 34.0798 59.4083 35.1348 57.9774 33.7207L58.3533 36.1336C58.3533 36.1336 56.0751 35.6791 54.8855 34.366L54.7003 37.3232C54.7003 37.3232 52.0854 37.0034 50.5535 34.6578C49.0272 32.3122 47.5458 12.4984 54.2346 7.97003Z" fill="#292B38"/>
<path id="Vector_13" d="M71.6972 35.8979V36.1055L72.0003 39.0347L72.0564 39.5453L72.5333 43.7595C72.6624 49.1857 81.1805 51.1721 84.5585 37.8956L82.9537 31.3246L82.8022 30.4717L73.6781 31.1002L71.6972 35.8979Z" fill="#E5B7AC"/>
<path id="Vector_14" opacity="0.5" d="M71.6972 35.8979V36.1055L72.2472 41.369C80.5576 40.8584 81.2142 33.6646 82.9593 31.3246L82.8078 30.4717L73.6837 31.1002L71.6972 35.8979Z" fill="#CA7E86"/>
<g id="Group_2">
<path id="Vector_15" d="M35.2793 22.352C37.4902 30.8982 43.9601 36.6162 49.7286 35.1235C55.4971 33.6309 58.3758 25.4888 56.1649 16.9426C53.954 8.39648 47.4841 2.67847 41.7156 4.1711C35.9471 5.66373 33.0628 13.8059 35.2793 22.352Z" fill="#E5B7AC"/>
<path id="Vector_16" d="M45.5481 28.951C45.5481 28.951 50.0092 29.3887 51.9563 27.8904C51.9563 27.8904 51.3896 30.5895 49.3639 30.8308C46.85 31.1282 45.5481 28.951 45.5481 28.951Z" fill="#F5F5F5"/>
<g id="Group_3">
<g id="Group_4">
<g id="Group_5">
<path id="Vector_17" d="M54.6161 23.0085C54.661 23.1825 55.1324 23.2105 55.6655 23.0703C56.1985 22.93 56.5913 22.6719 56.5465 22.4979C56.5016 22.3239 56.0302 22.2959 55.4971 22.4362C54.964 22.5765 54.5712 22.8346 54.6161 23.0085Z" fill="#CA7E86"/>
<path id="Vector_18" d="M54.6498 24.0916C54.6554 23.912 55.1043 23.7717 55.6542 23.7885C56.2042 23.7998 56.6475 23.9569 56.6419 24.1421C56.6362 24.3216 56.1873 24.4619 55.6374 24.4451C55.0875 24.4282 54.6442 24.2711 54.6498 24.0916Z" fill="#CA7E86"/>
</g>
<g id="Group_6">
<path id="Vector_19" d="M40.9131 25.7245C40.8682 25.5505 40.3969 25.5225 39.8638 25.6627C39.3307 25.803 38.9379 26.0611 38.9828 26.2351C39.0277 26.4091 39.499 26.4371 40.0321 26.2968C40.5652 26.1565 40.958 25.8984 40.9131 25.7245Z" fill="#CA7E86"/>
<path id="Vector_20" d="M40.8795 24.6414C40.8739 24.821 40.4249 24.9613 39.875 24.9445C39.3251 24.9332 38.8818 24.7761 38.8874 24.5909C38.893 24.4114 39.3419 24.2711 39.8919 24.2879C40.4418 24.3048 40.8851 24.4619 40.8795 24.6414Z" fill="#CA7E86"/>
</g>
</g>
<g id="Group_7">
<g id="Group_8">
<path id="Vector_21" d="M49.2629 26.5718C49.2853 26.5662 49.3078 26.5606 49.3302 26.555C49.5996 26.4764 50.2056 26.1117 49.9475 24.4339C49.521 21.6899 48.7859 20.2702 48.7522 20.2141C48.7017 20.1243 48.5895 20.0851 48.4997 20.1356C48.4099 20.1861 48.3707 20.2983 48.4212 20.3881C48.4268 20.3993 49.1619 21.819 49.5771 24.49C49.7511 25.6179 49.5098 26.1117 49.2292 26.1902C48.8139 26.3137 48.034 25.7189 47.5177 24.5405C47.4784 24.4451 47.3662 24.4002 47.2708 24.4451C47.1754 24.4844 47.1305 24.5966 47.1754 24.692C47.7085 25.9321 48.5783 26.7065 49.2629 26.5718Z" fill="#CA7E86"/>
</g>
<path id="Vector_22" d="M54.4366 20.2814C54.33 20.0233 54.1784 19.7876 53.9708 19.5968C53.8025 19.4341 53.5949 19.3275 53.376 19.2489C53.1516 19.1928 52.9159 19.1816 52.6914 19.2209C52.2425 19.3163 51.8609 19.58 51.5804 19.9111C51.2942 20.2365 51.0753 20.6293 50.9687 21.0614C51.2942 20.8033 51.5972 20.562 51.9002 20.36C52.2032 20.158 52.5063 20.0009 52.8037 19.9504C53.3985 19.8045 53.9933 20.1748 54.5769 20.7865L55.5869 19.8269L54.4366 20.2814Z" fill="#292B38"/>
<path id="Vector_23" d="M42.0298 21.847C42.0579 21.572 42.142 21.3027 42.2879 21.0558C42.4001 20.8538 42.5741 20.691 42.7649 20.5564C42.9669 20.4385 43.1857 20.36 43.4102 20.3375C43.8647 20.3038 44.308 20.4497 44.6728 20.6854C45.0431 20.9155 45.3573 21.2297 45.5874 21.6169C45.2002 21.4654 44.8467 21.3139 44.4988 21.2017C44.1509 21.0951 43.8142 21.0277 43.5112 21.0614C42.8996 21.0894 42.4338 21.6113 42.041 22.3632L40.8065 21.7291L42.0298 21.847Z" fill="#292B38"/>
<g id="Group_9">
<g id="Group_10">
<path id="Vector_24" d="M41.8895 17.4645C42.546 17.1278 43.3597 17.0773 44.308 17.313C44.6391 17.3972 44.9814 17.2232 45.0768 16.9202C45.1722 16.6228 44.9814 16.3085 44.6559 16.23C43.3709 15.9045 42.2374 15.9943 41.2722 16.4937C39.7628 17.2793 39.3756 19.4678 39.7067 19.5463C39.774 19.5632 40.8458 17.9976 41.8895 17.4645Z" fill="#292B38"/>
</g>
</g>
<g id="Group_11">
<g id="Group_12">
<path id="Vector_25" d="M52.8037 16.1065C52.1303 15.9999 51.4289 16.2132 50.7106 16.7462C50.4581 16.9314 50.1102 16.8753 49.925 16.6284C49.7398 16.3759 49.796 16.028 50.0429 15.8428C51.0192 15.1246 52.0069 14.844 52.9945 15.0011C54.5432 15.248 55.6206 17.1839 55.3625 17.3635C55.312 17.3972 53.8698 16.2749 52.8037 16.1065Z" fill="#292B38"/>
</g>
</g>
</g>
</g>
</g>
<g id="Group_13">
<path id="Vector_26" d="M67.73 11.163C67.73 11.163 56.3557 28.5863 64.1443 37.5814L67.0847 31.0946L70.1429 12.0888L67.73 11.163Z" fill="#583B1C"/>
<path id="Vector_27" d="M86.0682 25.4268C88.9323 17.1013 86.7024 8.78624 81.0876 6.85466C75.4728 4.92307 68.5992 10.1064 65.7351 18.4319C62.871 26.7575 65.1009 35.0725 70.7158 37.0041C76.3306 38.9357 83.2041 33.7523 86.0682 25.4268Z" fill="#E5B7AC"/>
<path id="Vector_28" d="M74.8452 30.6681C74.8452 30.6681 70.3337 30.6345 68.6839 28.6649C68.6839 28.6649 68.5324 31.493 70.7994 31.9924C73.8688 32.6714 74.8452 30.6681 74.8452 30.6681Z" fill="#F5F5F5"/>
<g id="Group_14">
<g id="Group_15">
<g id="Group_16">
<path id="Vector_29" d="M66.8041 24.5854C66.7424 24.7537 66.2767 24.7481 65.7604 24.5629C65.2442 24.3834 64.8738 24.0972 64.9299 23.9233C64.9917 23.7549 65.4574 23.7605 65.9737 23.9457C66.4899 24.1253 66.8603 24.4114 66.8041 24.5854Z" fill="#CA7E86"/>
<path id="Vector_30" d="M66.6863 25.6572C66.6975 25.4776 66.2598 25.3037 65.7099 25.2756C65.16 25.2475 64.7111 25.3654 64.6999 25.5506C64.6886 25.7301 65.1263 25.9041 65.6763 25.9321C66.2262 25.9546 66.6751 25.8367 66.6863 25.6572Z" fill="#CA7E86"/>
</g>
<g id="Group_17">
<path id="Vector_31" d="M80.2153 28.345C80.2771 28.1767 80.7428 28.1823 81.2591 28.3675C81.7753 28.547 82.1457 28.8332 82.0896 29.0071C82.0278 29.1755 81.5621 29.1699 81.0458 28.9847C80.524 28.7995 80.1536 28.5133 80.2153 28.345Z" fill="#CA7E86"/>
<path id="Vector_32" d="M80.3332 27.2733C80.322 27.4528 80.7596 27.6268 81.3096 27.6548C81.8595 27.6829 82.3084 27.5651 82.3196 27.3799C82.3308 27.2003 81.8931 27.0264 81.3432 26.9983C80.7933 26.9702 80.3444 27.0937 80.3332 27.2733Z" fill="#CA7E86"/>
</g>
</g>
<g id="Group_18">
<g id="Group_19">
<path id="Vector_33" d="M71.8488 28.5414C71.8263 28.5358 71.8039 28.5302 71.7814 28.5189C71.5177 28.4179 70.9453 28.0083 71.3325 26.3642C71.9666 23.6707 72.8083 22.3184 72.8476 22.2622C72.9037 22.1725 73.0159 22.15 73.1057 22.2061C73.1899 22.2622 73.218 22.3745 73.1618 22.4643C73.1506 22.4755 72.3145 23.8278 71.6973 26.454C71.4335 27.565 71.6355 28.07 71.9161 28.171C72.3201 28.3282 73.145 27.7951 73.7454 26.6616C73.7959 26.5718 73.9082 26.5381 73.9979 26.583C74.0877 26.6335 74.1214 26.7457 74.0765 26.8355C73.4424 28.0251 72.5165 28.7266 71.8488 28.5414Z" fill="#CA7E86"/>
</g>
<path id="Vector_34" d="M79.3287 24.1196C79.3175 23.8166 79.2502 23.5192 79.1099 23.2442C78.9977 23.0198 78.8293 22.829 78.6329 22.6663C78.4253 22.526 78.1896 22.425 77.9483 22.3801C77.4545 22.3127 76.9663 22.4362 76.5567 22.6663C76.1415 22.8907 75.7711 23.2106 75.5018 23.6146C75.9338 23.4743 76.3266 23.3396 76.7138 23.2442C77.101 23.1544 77.4714 23.1039 77.7912 23.1601C78.4478 23.233 78.9191 23.8334 79.2895 24.6751L80.6755 24.0747L79.3287 24.1196Z" fill="#292B38"/>
<path id="Vector_35" d="M67.528 21.1063C67.6851 20.8482 67.8927 20.6238 68.1508 20.4554C68.3585 20.3095 68.5998 20.231 68.8523 20.1861C69.1048 20.1636 69.3573 20.1917 69.593 20.2759C70.0587 20.461 70.4178 20.8089 70.6647 21.213C70.9173 21.6114 71.08 22.0715 71.1193 22.5597C70.8106 22.2286 70.5357 21.9144 70.2439 21.6394C69.9521 21.3701 69.6547 21.1456 69.3461 21.039C68.7344 20.7809 68.033 21.0671 67.2923 21.6226L66.3777 20.4161L67.528 21.1063Z" fill="#292B38"/>
<g id="Group_20">
<g id="Group_21">
<path id="Vector_36" d="M80.3444 19.7371C79.7159 19.3499 78.9135 19.2377 77.954 19.4004C77.6173 19.4566 77.2918 19.2545 77.2189 18.9515C77.1459 18.6485 77.3591 18.3511 77.6958 18.295C78.9977 18.0762 80.12 18.2501 81.0346 18.8225C82.4767 19.7203 82.6844 21.9256 82.3533 21.9761C82.2803 21.9873 81.3376 20.3488 80.3444 19.7371Z" fill="#583C1C"/>
</g>
</g>
<g id="Group_22">
<g id="Group_23">
<path id="Vector_37" d="M69.4078 17.0942C70.0812 17.0437 70.7658 17.3074 71.4391 17.891C71.6748 18.093 72.0283 18.0706 72.2303 17.8349C72.4323 17.5992 72.4043 17.2457 72.1742 17.0437C71.2596 16.2581 70.3 15.8989 69.3068 15.9775C67.7525 16.1066 66.5292 17.9415 66.7648 18.1435C66.8153 18.1828 68.336 17.1783 69.4078 17.0942Z" fill="#583C1C"/>
</g>
</g>
</g>
</g>
</g>
<path id="Vector_38" d="M90.675 72.198C90.675 72.198 85.6528 74.3808 86.4271 75.4301C87.0444 75.9744 90.3383 74.796 91.3147 74.4257C89.3675 75.5311 86.0119 76.9564 86.3374 77.9047C86.8368 79.0775 92.5828 76.5524 92.7848 76.4795C92.9869 76.4065 87.2352 79.0887 87.9591 80.0427C88.5651 80.9068 92.2686 79.0439 93.7051 78.5781C93.7051 78.5781 90.5796 80.4972 90.9443 81.0696C91.5335 81.9337 93.6434 80.7778 95.3549 79.7341C96.4266 78.9877 96.9092 78.4042 96.7465 77.9496C96.6904 77.5176 95.9889 77.3661 95.9889 77.3661C95.9889 77.3661 96.5838 76.0025 95.0631 75.5143C95.0631 75.5143 95.5007 73.6176 93.8229 73.3483C93.8173 73.3539 94.6759 70.6436 90.675 72.198Z" fill="#E5B7AC"/>
<path id="Vector_39" d="M82.3982 10.0126L81.534 15.9494C81.534 15.9494 89.6369 30.7018 75.238 39.3658C75.238 39.3658 83.7 40.7237 87.151 35.7632L85.0524 40.3926C85.0524 40.3926 94.4963 42.6765 94.6478 26.6391C94.7208 19.2209 94.2719 9.46827 86.1915 10.1192L82.3982 10.0126Z" fill="#583B1C"/>
<path id="Vector_40" d="M81.9998 14.3502L81.5228 17.8853C81.5228 17.8853 78.2738 16.3085 77.2245 13.8283L76.4613 16.836C76.4613 16.836 74.0765 15.7362 73.4031 13.7778L72.1125 16.1178C72.1125 16.1178 69.9633 14.4456 69.7726 12.7734L68.6727 14.9225C68.6727 14.9225 64.279 10.6242 66.1925 7.38083C68.1004 4.13183 80.7541 -0.160883 86.8424 8.28987C94.1653 18.4521 81.9998 14.3502 81.9998 14.3502Z" fill="#583B1C"/>
<path id="Vector_41" d="M39.2017 10.3998C39.2017 10.3998 37.5014 20.3095 35.3467 21.6787C33.1919 23.0422 31.66 12.4142 31.66 12.4142C31.66 12.4142 32.0921 4.79959 37.406 5.01844C37.406 5.01844 41.7661 -0.727628 49.7118 1.42715C60.2388 4.28334 59.7169 15.3602 59.7169 15.3602C56.5577 15.2817 43.2194 13.4131 39.2017 10.3998Z" fill="#292B38"/>
<g id="Group_24">
<g id="Group_25">
<path id="Vector_42" d="M56.9393 17.3355C56.9 17.3242 56.6419 17.2625 56.2266 17.2064H56.221C55.991 17.1783 55.7104 17.1503 55.3793 17.1278C55.2503 17.1222 55.11 17.1166 54.9641 17.1166C53.6117 17.0773 51.6983 17.2457 49.6838 18.1098H49.6782C49.4369 18.2108 49.1956 18.3287 48.9487 18.4465L48.7242 18.5643L48.7859 18.8505C48.8364 19.1311 48.9038 19.4453 49.0048 19.782V19.7932C49.0946 20.1075 49.1956 20.4386 49.3246 20.7696C49.3415 20.8257 49.3639 20.8706 49.3808 20.9211C49.3808 20.9267 49.3864 20.9267 49.3864 20.9324C50.1159 22.7785 51.4401 24.6415 53.449 24.3385C53.651 24.3104 53.8418 24.2599 54.0214 24.1982C54.6274 23.9849 55.1156 23.5922 55.5084 23.104C55.7048 22.8683 55.8675 22.6214 56.019 22.3576C56.019 22.3576 56.019 22.352 56.0246 22.352C56.3669 21.7292 56.6082 21.0558 56.7822 20.4049V20.3993C56.7822 20.3937 56.7822 20.3937 56.7822 20.388C57.1413 19.0357 57.203 17.8349 57.2086 17.7282L57.2199 17.3972L56.9393 17.3355ZM55.0202 22.6102C55.0146 22.6158 55.0146 22.6158 55.009 22.6214C54.8855 22.7617 54.7565 22.8963 54.6162 23.0142C54.2627 23.3228 53.8362 23.5304 53.3424 23.609C51.0024 23.9625 49.8914 20.6911 49.5323 19.3107V19.2994C49.5042 19.1816 49.4817 19.0918 49.4593 19.0076C49.4986 18.9908 49.5323 18.9684 49.5715 18.9628L49.5772 18.9571C52.5119 17.588 55.3288 17.818 56.395 17.9752H56.4006C56.4623 17.9864 56.5072 17.992 56.5521 17.9976C56.5409 18.1267 56.5184 18.2838 56.5016 18.4633V18.4746C56.3669 19.5463 55.9854 21.4318 55.0202 22.6102Z" fill="#292B38"/>
</g>
<g id="Group_26">
<path id="Vector_43" d="M47.1642 19.103L47.1362 18.8168L46.8837 18.772C43.9657 18.2052 41.4462 18.7776 39.9199 19.3163H39.9087C39.8077 19.3499 39.7179 19.3892 39.6169 19.4285H39.6113C38.865 19.7091 38.4217 19.956 38.3712 19.984L38.1748 20.0962L38.1636 20.1019L38.1187 20.1299L38.2253 20.4442C38.2365 20.4778 38.2814 20.6125 38.36 20.8089C38.6349 21.5159 39.3251 23.0927 40.3913 24.3497C40.5204 24.4956 40.6494 24.6415 40.7841 24.7761C41.6595 25.6571 42.7537 26.2688 44.0555 26.0948C44.2744 26.0668 44.4708 26.0163 44.6616 25.9545C46.4628 25.3092 47.0913 23.0422 47.2091 21.0558C47.2204 20.7416 47.226 20.4329 47.2204 20.1411V20.1355C47.2204 19.7652 47.1923 19.4117 47.1642 19.103ZM43.9601 25.3653C41.1993 25.7245 39.3925 21.7011 38.9323 20.5227C39.8189 20.0906 42.8547 18.8225 46.5638 19.4453C46.6255 20.6237 46.7041 25.0006 43.9601 25.3653Z" fill="#292B38"/>
</g>
<g id="Group_27">
<path id="Vector_44" d="M49.3639 20.8033L49.7511 20.2478C48.6288 19.1591 47.2709 19.9728 46.7097 20.5564L47.1418 21.1119C47.1923 21.067 48.3875 19.855 49.3639 20.8033Z" fill="#292B38"/>
</g>
<g id="Group_28">
<path id="Vector_45" d="M38.4946 20.7808L38.3151 20.0738L35.6104 20.6069L35.7843 21.3195L38.4946 20.7808Z" fill="#292B38"/>
</g>
</g>
<g id="Group_29">
<path id="Vector_46" d="M37.2714 25.3205C33.7642 26.7009 30.7565 23.2947 30.1393 20.4498C29.8307 19.0189 30.1337 17.7339 31.2784 17.2569C33.7025 16.2749 35.6216 18.6036 36.5419 20.057C36.9347 20.6742 37.2714 25.3205 37.2714 25.3205Z" fill="#E5B7AC"/>
<path id="Vector_47" d="M32.4343 19.681C34.9089 19.5744 36.396 21.7572 36.4577 21.8526C36.5194 21.948 36.497 22.0771 36.4016 22.1388C36.3679 22.1613 36.3286 22.1725 36.295 22.1725C36.2276 22.1725 36.1603 22.1444 36.1154 22.0827C36.1042 22.0715 35.5486 21.2522 34.5891 20.6686C33.753 21.2522 34.2356 22.6831 34.2412 22.7C34.2805 22.8066 34.2244 22.9244 34.1121 22.9637C34.0897 22.9693 34.0672 22.9749 34.0504 22.9749C33.9606 22.9749 33.8821 22.9244 33.8484 22.8346C33.826 22.7673 33.3153 21.2578 34.1963 20.4554C33.7137 20.2253 33.1526 20.0682 32.5185 20.085C32.496 20.085 32.4736 20.085 32.4568 20.085C32.3558 20.1075 32.2435 20.0009 32.2379 19.8886C32.2323 19.7876 32.3221 19.6866 32.4343 19.681Z" fill="#BE717E"/>
</g>
<path id="Vector_48" d="M37.6249 5.09138C37.6249 5.09138 33.1133 3.90737 30.4479 9.01374C27.934 13.8395 26.75 19.2994 29.9317 26.5493C33.1133 33.7992 30.8912 36.6106 30.8912 36.6106C30.8912 36.6106 34.2917 36.6835 34.5891 34.467L33.7755 38.3164C33.7755 38.3164 37.2545 37.6487 37.5463 35.1348L38.0626 39.1301C38.0626 39.1301 41.3901 36.3188 40.6494 32.7668C39.9087 29.2147 34.7238 21.6899 37.9054 13.4748C39.7123 8.82295 37.6249 5.09138 37.6249 5.09138Z" fill="#292B38"/>
<path id="Vector_49" d="M31.1605 53.1024C31.0932 53.8319 29.017 57.1875 26.6097 60.7115C26.0317 61.5644 25.4369 62.4286 24.8365 63.2647C22.3338 66.783 19.9153 69.8637 19.3037 69.9478C19.3037 69.9478 14.4835 68.8985 15.2803 67.1085C20.454 51.2338 23.8938 45.3475 23.8938 45.3475C23.8938 45.3475 40.9019 37.716 31.1605 53.1024Z" fill="#E5B7AC"/>
<path id="Vector_50" opacity="0.5" d="M26.6097 60.7115C26.0317 61.5644 25.437 62.4286 24.8365 63.2647C23.8714 60.6834 20.8693 57.7599 20.628 57.5186C20.9366 57.6757 24.8085 59.6958 26.6097 60.7115Z" fill="#CA7E86"/>
<path id="Vector_51" d="M34.836 51.2451L29.3986 60.5656L27.7264 63.433L16.3802 53.6636C16.3802 53.6636 18.9895 47.9904 24.5335 42.755C26.144 41.0099 28.8823 39.0178 29.2976 38.7204V38.7148C29.32 38.7036 29.3369 38.6924 29.3481 38.6811C29.3537 38.6755 29.3537 38.6755 29.3537 38.6755L34.5274 42.9121L34.8304 51.0374L34.836 51.2451Z" fill="#F5F5F5"/>
<path id="Vector_52" d="M11.0998 32.0878C11.0998 32.0878 10.2301 64.1793 14.3825 68.2981C18.4676 72.3495 20.7346 70.0432 21.1218 65.0547C21.509 60.0662 17.3285 30.7916 17.3285 30.7916L11.0998 32.0878Z" fill="#E5B7AC"/>
<path id="Vector_53" d="M103.598 72.1475C102.246 71.9511 91.8982 56.9462 91.7467 55.3021C81.9941 39.9213 99.0079 47.5528 99.0079 47.5528C99.0079 47.5528 102.442 53.4335 107.616 69.3081C108.418 71.0982 103.598 72.1475 103.598 72.1475Z" fill="#E5B7AC"/>
<path id="Vector_54" d="M105.265 57.6589L95.1585 65.0322L95.0631 65.0996L92.4089 60.689L88.0601 53.4559L88.3743 45.123L93.6097 40.9874H93.6153C93.6153 40.9874 93.6153 40.9874 93.6209 40.993C93.6266 40.993 93.6266 40.993 93.6322 40.9986C93.8735 41.1614 96.4884 42.9234 98.1437 44.7302C103.727 51.5593 105.265 57.6589 105.265 57.6589Z" fill="#3ABFB8"/>
<path id="Vector_55" d="M119.259 47.1319C119.259 47.1319 112.818 70.0881 107.677 72.1643C102.616 74.2069 100.388 68.3766 100.388 68.3766L113.777 43.9615L119.259 47.1319Z" fill="#E5B7AC"/>
<path id="Vector_56" d="M29.1854 38.5072C29.1854 38.5072 33.4332 41.7393 32.4568 42.5586C31.7441 42.929 28.8992 41.0491 28.0631 40.4712C29.6511 41.9694 32.5017 44.1017 31.9686 44.9266C31.2223 45.9198 26.3628 42.1939 26.1889 42.076C26.0149 41.9582 30.8351 45.8413 29.9317 46.5764C29.1573 47.2553 26.0822 44.6292 24.8309 43.8548C24.8309 43.8548 27.3448 46.4024 26.8678 46.8625C26.1103 47.5415 24.382 45.9591 23.0016 44.5731C22.1599 43.6192 21.8344 42.9514 22.0982 42.5586C22.2497 42.1602 22.9511 42.1826 22.9511 42.1826C22.9511 42.1826 22.7042 40.7517 24.2585 40.6395C24.2585 40.6395 24.2866 38.7429 25.9364 38.8719C25.942 38.8719 25.7568 36.0999 29.1854 38.5072Z" fill="#E5B7AC"/>
<path id="Vector_57" d="M60.5698 59.7295C60.5811 60.1503 60.5642 60.5768 60.5306 61.0033C60.4969 61.3792 60.452 61.7608 60.3847 62.1424C60.3005 62.7204 60.1883 63.3039 60.048 63.8651C60.048 63.8707 60.048 63.8707 60.0424 63.8763C59.3241 66.9401 58.0896 69.7178 57.8876 70.1442C57.8708 70.1891 57.8652 70.2116 57.8652 70.2116L59.6552 93.5662H21.5314C23.4842 85.4577 27.6085 79.4928 31.6656 72.1026L30.4423 64.9312C30.4423 64.9312 30.4591 64.9088 30.504 64.8863C30.7397 64.7405 31.5926 64.2018 32.67 63.3432C32.743 63.2871 32.8215 63.2254 32.8945 63.1637C33.4275 62.7316 34.0055 62.2209 34.5891 61.6374C36.194 60.0549 37.8269 57.9563 38.6013 55.4817C38.8931 54.5614 39.067 53.585 39.0726 52.5637H39.1231C38.764 49.5785 38.0682 47.188 37.2152 45.2465V45.2409C36.3286 43.2264 35.2905 41.7281 34.2861 40.6171C34.2749 40.6003 34.2637 40.589 34.2524 40.5778C32.844 39.0291 31.5365 38.2715 30.9361 37.9797C31.8676 37.615 32.9113 37.2839 34.0616 36.9641C34.0672 36.9641 34.0785 36.9585 34.0841 36.9585C34.129 36.9472 34.1963 36.9248 34.258 36.908C34.3759 36.9977 34.5106 37.0987 34.634 37.2054C34.8528 37.3793 35.0773 37.5701 35.3074 37.7833C36.0593 38.4679 36.8729 39.377 37.6641 40.5385V40.5441C37.6641 40.5441 37.6754 40.5441 37.681 40.5554V40.561C38.8369 42.2724 39.9536 44.5563 40.7448 47.5808C41.1376 49.0566 41.4518 50.7176 41.6595 52.5637H56.5577C56.2547 50.0386 55.8675 47.9007 55.4186 46.1106V46.105C55.1324 44.9491 54.8294 43.9222 54.5152 43.03V43.0244C54.4759 42.9178 54.4366 42.8111 54.4029 42.7045C53.7183 40.8023 53.0225 39.5173 52.4838 38.6924L56.4006 40.9033H56.4062C56.423 40.9425 56.4399 40.9931 56.4623 41.0379V41.0436C56.5689 41.3073 56.6755 41.6047 56.7822 41.9021V41.9077C57.0515 42.6428 57.3096 43.4452 57.5509 44.3374C58.1962 46.6493 58.7742 49.5224 59.1445 53.0632H59.1333C59.3578 53.6299 59.7337 54.6512 60.0424 55.9137C60.1265 56.2448 60.2051 56.5871 60.2724 56.9462C60.4408 57.8104 60.5586 58.7587 60.5698 59.7295Z" fill="#3A65AF"/>
<path id="Vector_58" opacity="0.2" d="M35.4813 73.4325C35.4813 73.4325 30.807 81.367 29.0002 93.5661H21.5314C23.4842 85.4577 27.6085 79.4928 31.6656 72.1026L30.4423 64.9312C30.4423 64.9312 30.4591 64.9088 30.504 64.8863C30.7397 64.7404 31.5926 64.2017 32.67 63.3432C32.743 63.2871 32.8215 63.2254 32.8945 63.1636C32.9394 64.1737 33.074 65.1669 33.3322 66.0984C35.0605 72.3326 35.4813 73.4325 35.4813 73.4325Z" fill="#3A65AF"/>
<path id="Vector_59" d="M17.1377 30.8926C17.1377 30.8926 17.8167 27.464 16.8179 25.5112C15.819 23.5585 15.0334 19.4397 13.8831 18.8168C12.7328 18.194 11.8237 19.8606 13.176 23.5641C13.176 23.5641 11.5712 22.9132 10.9091 22.3857C10.2469 21.8582 6.54339 17.2681 5.43234 16.8136C4.32128 16.3591 4.19782 17.1166 5.14615 18.772C6.09447 20.4217 8.77672 23.9176 8.74305 23.9962C8.715 24.0747 5.69046 21.1905 4.90486 20.2029C4.11927 19.2153 2.46952 17.2008 1.78493 17.1166C1.10034 17.0324 1.20695 18.4689 2.05988 19.6698C2.91282 20.8706 6.21231 24.9782 6.44238 25.3092C6.67245 25.6403 1.57732 21.5271 1.10596 21.1961C0.634602 20.865 -0.616743 20.9941 0.382085 22.5148C1.38091 24.0354 5.32572 27.1217 5.32572 27.1217C5.32572 27.1217 2.15528 25.5337 1.53803 25.5056C0.920777 25.4776 0.0454101 25.5898 0.724388 26.3866C1.40337 27.1834 5.28084 29.153 5.5109 29.3326C5.74097 29.5122 8.81601 33.7712 11.6666 34.0798C12.7664 34.7981 16.6158 31.8577 17.1377 30.8926Z" fill="#E5B7AC"/>
<path id="Vector_60" d="M113.771 45.0108C113.771 45.0108 112.341 41.8179 112.879 39.6912C113.412 37.5645 113.266 33.3784 114.248 32.5143C115.23 31.6501 116.493 33.0698 115.999 36.9865C115.999 36.9865 117.413 35.9933 117.946 35.3312C118.479 34.669 121.061 29.3663 122.037 28.6761C123.013 27.9803 123.305 28.6985 122.75 30.5222C122.194 32.3459 120.365 36.3468 120.41 36.4198C120.455 36.4871 122.761 33.0025 123.305 31.8633C123.849 30.7242 125.011 28.3955 125.656 28.1598C126.307 27.9242 126.52 29.3494 125.959 30.7074C125.398 32.071 123.098 36.807 122.946 37.1829C122.795 37.5533 126.846 32.4133 127.233 31.9812C127.62 31.5547 128.866 31.3976 128.232 33.1035C127.598 34.8093 124.444 38.698 124.444 38.698C124.444 38.698 127.183 36.4422 127.777 36.2739C128.372 36.1112 129.253 36.0214 128.771 36.9529C128.288 37.8844 124.944 40.6676 124.764 40.8921C124.579 41.1165 122.531 45.9592 119.826 46.8963C118.906 47.8446 114.495 45.8357 113.771 45.0108Z" fill="#E5B7AC"/>
</g>
</svg>
